<svg width="78" height="15" viewBox="0 0 78 15" fill="none" xmlns="http://www.w3.org/2000/svg">
<path d="M13.7402 6.70196L11.0977 9.00821L11.8893 12.4418C11.9312 12.6213 11.9192 12.8092 11.8549 12.9819C11.7906 13.1546 11.6768 13.3046 11.5278 13.413C11.3787 13.5214 11.201 13.5835 11.0168 13.5915C10.8327 13.5994 10.6503 13.553 10.4924 13.4578L7.49767 11.6414L4.50939 13.4578C4.35152 13.553 4.16911 13.5994 3.98496 13.5915C3.80081 13.5835 3.6231 13.5214 3.47403 13.413C3.32497 13.3046 3.21118 13.1546 3.14688 12.9819C3.08258 12.8092 3.07062 12.6213 3.11251 12.4418L3.90294 9.01172L1.25978 6.70196C1.11998 6.58139 1.01889 6.42222 0.969186 6.24443C0.919484 6.06663 0.92338 5.87812 0.980387 5.70253C1.03739 5.52694 1.14497 5.37209 1.28964 5.2574C1.4343 5.1427 1.6096 5.07328 1.79357 5.05782L5.27755 4.75606L6.63751 1.51231C6.70853 1.3421 6.82832 1.19672 6.9818 1.09445C7.13528 0.992189 7.31559 0.937622 7.50001 0.937622C7.68444 0.937622 7.86475 0.992189 8.01822 1.09445C8.1717 1.19672 8.29149 1.3421 8.36251 1.51231L9.72657 4.75606L13.2094 5.05782C13.3934 5.07328 13.5687 5.1427 13.7133 5.2574C13.858 5.37209 13.9656 5.52694 14.0226 5.70253C14.0796 5.87812 14.0835 6.06663 14.0338 6.24443C13.9841 6.42222 13.883 6.58139 13.7432 6.70196H13.7402Z" fill="#8BD6A3"/>
<path d="M34.7402 6.70196L32.0977 9.00821L32.8893 12.4418C32.9312 12.6213 32.9192 12.8092 32.8549 12.9819C32.7906 13.1546 32.6768 13.3046 32.5278 13.413C32.3787 13.5214 32.201 13.5835 32.0168 13.5915C31.8327 13.5994 31.6503 13.553 31.4924 13.4578L28.4977 11.6414L25.5094 13.4578C25.3515 13.553 25.1691 13.5994 24.985 13.5915C24.8008 13.5835 24.6231 13.5214 24.474 13.413C24.325 13.3046 24.2112 13.1546 24.1469 12.9819C24.0826 12.8092 24.0706 12.6213 24.1125 12.4418L24.9029 9.01172L22.2598 6.70196C22.12 6.58139 22.0189 6.42222 21.9692 6.24443C21.9195 6.06663 21.9234 5.87812 21.9804 5.70253C22.0374 5.52694 22.145 5.37209 22.2896 5.2574C22.4343 5.1427 22.6096 5.07328 22.7936 5.05782L26.2776 4.75606L27.6375 1.51231C27.7085 1.3421 27.8283 1.19672 27.9818 1.09445C28.1353 0.992189 28.3156 0.937622 28.5 0.937622C28.6844 0.937622 28.8647 0.992189 29.0182 1.09445C29.1717 1.19672 29.2915 1.3421 29.3625 1.51231L30.7266 4.75606L34.2094 5.05782C34.3934 5.07328 34.5687 5.1427 34.7133 5.2574C34.858 5.37209 34.9656 5.52694 35.0226 5.70253C35.0796 5.87812 35.0835 6.06663 35.0338 6.24443C34.9841 6.42222 34.883 6.58139 34.7432 6.70196H34.7402Z" fill="#8BD6A3"/>
<path d="M55.7402 6.70196L53.0977 9.00821L53.8893 12.4418C53.9312 12.6213 53.9192 12.8092 53.8549 12.9819C53.7906 13.1546 53.6768 13.3046 53.5278 13.413C53.3787 13.5214 53.201 13.5835 53.0168 13.5915C52.8327 13.5994 52.6503 13.553 52.4924 13.4578L49.4977 11.6414L46.5094 13.4578C46.3515 13.553 46.1691 13.5994 45.985 13.5915C45.8008 13.5835 45.6231 13.5214 45.474 13.413C45.325 13.3046 45.2112 13.1546 45.1469 12.9819C45.0826 12.8092 45.0706 12.6213 45.1125 12.4418L45.9029 9.01172L43.2598 6.70196C43.12 6.58139 43.0189 6.42222 42.9692 6.24443C42.9195 6.06663 42.9234 5.87812 42.9804 5.70253C43.0374 5.52694 43.145 5.37209 43.2896 5.2574C43.4343 5.1427 43.6096 5.07328 43.7936 5.05782L47.2776 4.75606L48.6375 1.51231C48.7085 1.3421 48.8283 1.19672 48.9818 1.09445C49.1353 0.992189 49.3156 0.937622 49.5 0.937622C49.6844 0.937622 49.8647 0.992189 50.0182 1.09445C50.1717 1.19672 50.2915 1.3421 50.3625 1.51231L51.7266 4.75606L55.2094 5.05782C55.3934 5.07328 55.5687 5.1427 55.7133 5.2574C55.858 5.37209 55.9656 5.52694 56.0226 5.70253C56.0796 5.87812 56.0835 6.06663 56.0338 6.24443C55.9841 6.42222 55.883 6.58139 55.7432 6.70196H55.7402Z" fill="#8BD6A3"/>
<path d="M76.7402 6.70196L74.0977 9.00821L74.8893 12.4418C74.9312 12.6213 74.9192 12.8092 74.8549 12.9819C74.7906 13.1546 74.6768 13.3046 74.5278 13.413C74.3787 13.5214 74.201 13.5835 74.0168 13.5915C73.8327 13.5994 73.6503 13.553 73.4924 13.4578L70.4977 11.6414L67.5094 13.4578C67.3515 13.553 67.1691 13.5994 66.985 13.5915C66.8008 13.5835 66.6231 13.5214 66.474 13.413C66.325 13.3046 66.2112 13.1546 66.1469 12.9819C66.0826 12.8092 66.0706 12.6213 66.1125 12.4418L66.9029 9.01172L64.2598 6.70196C64.12 6.58139 64.0189 6.42222 63.9692 6.24443C63.9195 6.06663 63.9234 5.87812 63.9804 5.70253C64.0374 5.52694 64.145 5.37209 64.2896 5.2574C64.4343 5.1427 64.6096 5.07328 64.7936 5.05782L68.2776 4.75606L69.6375 1.51231C69.7085 1.3421 69.8283 1.19672 69.9818 1.09445C70.1353 0.992189 70.3156 0.937622 70.5 0.937622C70.6844 0.937622 70.8647 0.992189 71.0182 1.09445C71.1717 1.19672 71.2915 1.3421 71.3625 1.51231L72.7266 4.75606L76.2094 5.05782C76.3934 5.07328 76.5687 5.1427 76.7133 5.2574C76.858 5.37209 76.9656 5.52694 77.0226 5.70253C77.0796 5.87812 77.0835 6.06663 77.0338 6.24443C76.9841 6.42222 76.883 6.58139 76.7432 6.70196H76.7402Z" fill="#8BD6A3"/>
</svg>
