<svg width="40" height="41" viewBox="0 0 40 41" fill="none" xmlns="http://www.w3.org/2000/svg">
<path d="M36.875 32.8201C36.875 33.3173 36.6775 33.7943 36.3258 34.1459C35.9742 34.4975 35.4973 34.6951 35 34.6951H5C4.50272 34.6951 4.02581 34.4975 3.67417 34.1459C3.32254 33.7943 3.125 33.3173 3.125 32.8201V7.82007C3.125 7.32279 3.32254 6.84587 3.67417 6.49424C4.02581 6.14261 4.50272 5.94507 5 5.94507C5.49728 5.94507 5.97419 6.14261 6.32583 6.49424C6.67746 6.84587 6.875 7.32279 6.875 7.82007V21.1873L13.7656 15.1638C14.0891 14.8808 14.5 14.7175 14.9295 14.7013C15.3591 14.6851 15.7811 14.8169 16.125 15.0748L24.9094 21.6623L33.7656 13.9138C33.9471 13.7327 34.1637 13.5908 34.4021 13.4967C34.6406 13.4026 34.8958 13.3585 35.152 13.3669C35.4082 13.3754 35.6599 13.4363 35.8917 13.5458C36.1234 13.6554 36.3302 13.8113 36.4993 14.004C36.6684 14.1966 36.7962 14.4219 36.8749 14.6659C36.9535 14.9099 36.9812 15.1674 36.9564 15.4225C36.9315 15.6777 36.8547 15.925 36.7305 16.1492C36.6063 16.3735 36.4375 16.5699 36.2344 16.7263L26.2344 25.4763C25.9109 25.7593 25.5 25.9226 25.0705 25.9389C24.641 25.9551 24.2189 25.8232 23.875 25.5654L15.0906 18.9826L6.875 26.1716V30.9451H35C35.4973 30.9451 35.9742 31.1426 36.3258 31.4942C36.6775 31.8459 36.875 32.3228 36.875 32.8201Z" fill="#1A3B5D"/>
</svg>
