<svg width="25" height="25" viewBox="0 0 25 25" fill="none" xmlns="http://www.w3.org/2000/svg">
<path d="M19.3428 2.78507H16.1056C15.6516 2.31096 15.1063 1.93367 14.5026 1.67591C13.8989 1.41816 13.2492 1.28528 12.5928 1.28528C11.9363 1.28528 11.2867 1.41816 10.683 1.67591C10.0793 1.93367 9.53398 2.31096 9.07996 2.78507H5.84277C5.34549 2.78507 4.86858 2.98261 4.51695 3.33425C4.16532 3.68588 3.96777 4.16279 3.96777 4.66007V20.4101C3.96777 20.9074 4.16532 21.3843 4.51695 21.7359C4.86858 22.0875 5.34549 22.2851 5.84277 22.2851H19.3428C19.8401 22.2851 20.317 22.0875 20.6686 21.7359C21.0202 21.3843 21.2178 20.9074 21.2178 20.4101V4.66007C21.2178 4.16279 21.0202 3.68588 20.6686 3.33425C20.317 2.98261 19.8401 2.78507 19.3428 2.78507ZM15.1906 5.78507H9.99496C10.0855 5.1607 10.3979 4.58983 10.875 4.17698C11.3521 3.76412 11.9619 3.53689 12.5928 3.53689C13.2237 3.53689 13.8335 3.76412 14.3105 4.17698C14.7876 4.58983 15.1 5.1607 15.1906 5.78507ZM18.9678 20.0351H6.21777V5.03507H7.84996C7.76244 5.40368 7.71808 5.78121 7.71777 6.16007V6.91007C7.71777 7.20844 7.8363 7.49459 8.04728 7.70557C8.25826 7.91654 8.5444 8.03507 8.84277 8.03507H16.3428C16.6411 8.03507 16.9273 7.91654 17.1383 7.70557C17.3492 7.49459 17.4678 7.20844 17.4678 6.91007V6.16007C17.4675 5.78121 17.4231 5.40368 17.3356 5.03507H18.9678V20.0351Z" fill="#1A3B5D"/>
</svg>
