<svg width="178" height="175" viewBox="0 0 178 175" fill="none" xmlns="http://www.w3.org/2000/svg">
<g opacity="0.4">
<path d="M176.877 153.02C176.877 153.02 173.811 156.809 172.931 162.983C172.051 169.205 168.786 173.227 168.786 173.227" stroke="#1A3B5D" stroke-width="2" stroke-miterlimit="10"/>
<path d="M176.877 136.18C176.877 136.18 166.373 141.512 163.59 154.937C160.922 167.988 150.133 173.274 150.133 173.274" stroke="#1A3B5D" stroke-width="2" stroke-miterlimit="10"/>
<path d="M176.877 119.34C176.877 119.34 158.934 126.217 154.278 146.845C149.764 166.725 131.48 173.274 131.48 173.274" stroke="#1A3B5D" stroke-width="2" stroke-miterlimit="10"/>
<path d="M176.877 102.454C176.877 102.454 151.524 110.92 144.938 138.753C138.663 165.462 112.827 173.274 112.827 173.274" stroke="#1A3B5D" stroke-width="2" stroke-miterlimit="10"/>
<path d="M176.877 85.6143C176.877 85.6143 144.086 95.6245 135.625 130.66C127.534 164.246 94.203 173.274 94.203 173.274" stroke="#1A3B5D" stroke-width="2" stroke-miterlimit="10"/>
<path d="M176.877 68.7275C176.877 68.7275 136.647 80.2814 126.285 122.568C116.376 162.983 75.5501 173.274 75.5501 173.274" stroke="#1A3B5D" stroke-width="2" stroke-miterlimit="10"/>
<path d="M176.877 51.8882C176.877 51.8882 129.237 65.0325 116.973 114.476C105.275 161.72 56.9257 173.274 56.9257 173.274" stroke="#1A3B5D" stroke-width="2" stroke-miterlimit="10"/>
<path d="M176.877 35.0483C176.877 35.0483 121.799 49.7363 107.632 106.43C94.1178 160.504 38.2444 173.274 38.2444 173.274" stroke="#1A3B5D" stroke-width="2" stroke-miterlimit="10"/>
<path d="M176.877 18.1619C176.877 18.1619 114.361 34.3935 98.2913 98.2908C82.9885 159.241 19.5916 173.274 19.5916 173.274" stroke="#1A3B5D" stroke-width="2" stroke-miterlimit="10"/>
<path d="M176.877 1.32227C176.877 1.32227 106.951 19.0975 88.9791 90.2452C71.8593 157.978 0.938721 173.274 0.938721 173.274" stroke="#1A3B5D" stroke-width="2" stroke-miterlimit="10"/>
</g>
</svg>
