<svg width="434" height="472" viewBox="0 0 434 472" fill="none" xmlns="http://www.w3.org/2000/svg">
<path d="M134.704 -49.0246C171.655 -85.9761 226.705 -97.9071 285.905 -87.2422C345.103 -76.5776 408.4 -43.3223 461.741 10.0189C515.082 63.36 548.337 126.657 559.002 185.854C569.667 245.054 557.736 300.104 520.784 337.056C483.833 374.007 428.783 385.938 369.583 375.273C310.385 364.609 247.088 331.353 193.747 278.012C140.406 224.671 107.151 161.375 96.4862 102.177C85.8213 42.9769 97.7523 -12.073 134.704 -49.0246Z" stroke="white"/>
<path d="M166.704 -81.0246C203.655 -117.976 258.705 -129.907 317.905 -119.242C377.103 -108.578 440.4 -75.3223 493.741 -21.9811C547.082 31.36 580.337 94.6566 591.002 153.854C601.667 213.054 589.736 268.104 552.784 305.056C515.833 342.007 460.783 353.938 401.583 343.273C342.385 332.609 279.088 299.353 225.747 246.012C172.406 192.671 139.151 129.375 128.486 70.1768C117.821 10.9769 129.752 -44.073 166.704 -81.0246Z" stroke="white"/>
<path d="M198.704 -113.025C235.655 -149.976 290.705 -161.907 349.905 -151.242C409.103 -140.578 472.4 -107.322 525.741 -53.9811C579.082 -0.64003 612.337 62.6566 623.002 121.854C633.667 181.054 621.736 236.104 584.784 273.056C547.833 310.007 492.783 321.938 433.583 311.273C374.385 300.609 311.088 267.353 257.747 214.012C204.406 160.671 171.151 97.3746 160.486 38.1768C149.821 -21.0231 161.752 -76.073 198.704 -113.025Z" stroke="white"/>
</svg>
