<svg width="453" height="366" viewBox="0 0 453 366" fill="none" xmlns="http://www.w3.org/2000/svg">
<path d="M194.741 258.019C248.082 311.36 281.337 374.656 292.002 433.854C302.667 493.054 290.736 548.104 253.784 585.056C216.833 622.007 161.783 633.938 102.583 623.273C43.3849 612.609 -19.9116 579.353 -73.2527 526.012C-126.594 472.671 -159.849 409.375 -170.514 350.177C-181.179 290.977 -169.248 235.927 -132.296 198.975C-95.3446 162.024 -40.2946 150.093 18.9053 160.758C78.1031 171.422 141.4 204.678 194.741 258.019Z" stroke="white"/>
<path d="M226.741 226.019C280.082 279.36 313.337 342.656 324.002 401.854C334.667 461.054 322.736 516.104 285.784 553.056C248.833 590.007 193.783 601.938 134.583 591.273C75.3849 580.609 12.0884 547.353 -41.2527 494.012C-94.5939 440.671 -127.849 377.375 -138.514 318.177C-149.179 258.977 -137.248 203.927 -100.296 166.975C-63.3446 130.024 -8.29461 118.093 50.9053 128.758C110.103 139.422 173.4 172.678 226.741 226.019Z" stroke="white"/>
<path d="M258.741 194.019C312.082 247.36 345.337 310.656 356.002 369.854C366.667 429.054 354.736 484.104 317.784 521.056C280.833 558.007 225.783 569.938 166.583 559.273C107.385 548.609 44.0884 515.353 -9.25275 462.012C-62.5939 408.671 -95.8494 345.375 -106.514 286.177C-117.179 226.977 -105.248 171.927 -68.2962 134.975C-31.3446 98.0239 23.7054 86.0927 82.9053 96.7577C142.103 107.422 205.4 140.678 258.741 194.019Z" stroke="white"/>
</svg>
