<svg width="25" height="24" viewBox="0 0 25 24" fill="none" xmlns="http://www.w3.org/2000/svg">
<path d="M14.0928 16.875C14.0928 17.1717 14.0048 17.4617 13.84 17.7084C13.6752 17.955 13.4409 18.1473 13.1668 18.2608C12.8927 18.3744 12.5911 18.4041 12.3001 18.3462C12.0092 18.2883 11.7419 18.1454 11.5321 17.9357C11.3223 17.7259 11.1795 17.4586 11.1216 17.1676C11.0637 16.8767 11.0934 16.5751 11.207 16.301C11.3205 16.0269 11.5127 15.7926 11.7594 15.6278C12.0061 15.463 12.2961 15.375 12.5928 15.375C12.9906 15.375 13.3721 15.533 13.6534 15.8143C13.9347 16.0956 14.0928 16.4772 14.0928 16.875ZM22.7178 12C22.7178 14.0025 22.1239 15.9601 21.0114 17.6251C19.8989 19.2902 18.3175 20.5879 16.4674 21.3543C14.6173 22.1206 12.5815 22.3211 10.6175 21.9305C8.65342 21.5398 6.84932 20.5755 5.43331 19.1595C4.01731 17.7435 3.05299 15.9393 2.66232 13.9753C2.27164 12.0112 2.47215 9.97543 3.23849 8.12533C4.00483 6.27523 5.30257 4.69392 6.96762 3.58137C8.63267 2.46882 10.5902 1.875 12.5928 1.875C15.2772 1.87798 17.8508 2.94567 19.7489 4.84383C21.6471 6.74199 22.7148 9.3156 22.7178 12ZM20.4678 12C20.4678 10.4425 20.0059 8.91992 19.1406 7.62488C18.2753 6.32985 17.0454 5.32049 15.6064 4.72445C14.1674 4.12841 12.584 3.97246 11.0564 4.27632C9.52883 4.58017 8.12564 5.3302 7.0243 6.43153C5.92297 7.53287 5.17294 8.93606 4.86909 10.4637C4.56523 11.9913 4.72118 13.5747 5.31722 15.0136C5.91326 16.4526 6.92262 17.6825 8.21765 18.5478C9.51269 19.4131 11.0352 19.875 12.5928 19.875C14.6807 19.8728 16.6824 19.0424 18.1588 17.566C19.6351 16.0896 20.4655 14.0879 20.4678 12ZM12.5928 6C10.3184 6 8.46777 7.68188 8.46777 9.75V10.125C8.46777 10.4234 8.5863 10.7095 8.79727 10.9205C9.00825 11.1315 9.2944 11.25 9.59277 11.25C9.89114 11.25 10.1773 11.1315 10.3883 10.9205C10.5992 10.7095 10.7178 10.4234 10.7178 10.125V9.75C10.7178 8.92313 11.5615 8.25 12.5928 8.25C13.624 8.25 14.4678 8.92313 14.4678 9.75C14.4678 10.5769 13.624 11.25 12.5928 11.25C12.2944 11.25 12.0083 11.3685 11.7973 11.5795C11.5863 11.7905 11.4678 12.0766 11.4678 12.375V13.125C11.4671 13.4029 11.5693 13.6713 11.7548 13.8783C11.9402 14.0854 12.1958 14.2164 12.4721 14.2462C12.7484 14.276 13.026 14.2025 13.2514 14.0398C13.4767 13.8771 13.6338 13.6367 13.6925 13.365C15.4343 12.9262 16.7178 11.4722 16.7178 9.75C16.7178 7.68188 14.8671 6 12.5928 6Z" fill="#1A3B5D"/>
</svg>
