<svg width="178" height="175" viewBox="0 0 178 175" fill="none" xmlns="http://www.w3.org/2000/svg">
<g opacity="0.4">
<path d="M1.00001 21.5745C1.00001 21.5745 4.06624 17.7855 4.94636 11.611C5.82648 5.38965 9.09143 1.36682 9.09143 1.36682" stroke="#1A3B5D" stroke-width="2" stroke-miterlimit="10"/>
<path d="M1.00003 38.4143C1.00003 38.4143 11.5047 33.0817 14.287 19.6568C16.9558 6.60601 27.7443 1.32021 27.7443 1.32021" stroke="#1A3B5D" stroke-width="2" stroke-miterlimit="10"/>
<path d="M1.00002 55.2539C1.00002 55.2539 18.9431 48.3777 23.5992 27.7491C28.1134 7.86889 46.3972 1.32012 46.3972 1.32012" stroke="#1A3B5D" stroke-width="2" stroke-miterlimit="10"/>
<path d="M1.00002 72.1404C1.00002 72.1404 26.3531 63.6737 32.9398 35.8415C39.2142 9.13184 65.05 1.3201 65.05 1.3201" stroke="#1A3B5D" stroke-width="2" stroke-miterlimit="10"/>
<path d="M0.99998 88.98C0.99998 88.98 33.7915 78.9697 42.252 43.9338C50.3435 10.3479 83.6744 1.32001 83.6744 1.32001" stroke="#1A3B5D" stroke-width="2" stroke-miterlimit="10"/>
<path d="M1.00003 105.867C1.00003 105.867 41.23 94.3128 51.5927 52.0265C61.5012 11.6112 102.327 1.32027 102.327 1.32027" stroke="#1A3B5D" stroke-width="2" stroke-miterlimit="10"/>
<path d="M1.00002 122.706C1.00002 122.706 48.64 109.562 60.9049 60.1185C72.602 12.8738 120.952 1.31994 120.952 1.31994" stroke="#1A3B5D" stroke-width="2" stroke-miterlimit="10"/>
<path d="M0.999988 139.546C0.999988 139.546 56.0784 124.858 70.2455 68.1643C83.7596 14.0902 139.633 1.32008 139.633 1.32008" stroke="#1A3B5D" stroke-width="2" stroke-miterlimit="10"/>
<path d="M1.00003 156.432C1.00003 156.432 63.5169 140.201 79.5862 76.3035C94.8889 15.3531 158.286 1.32007 158.286 1.32007" stroke="#1A3B5D" stroke-width="2" stroke-miterlimit="10"/>
<path d="M1.00002 173.272C1.00002 173.272 70.9269 155.497 88.8984 84.349C106.018 16.616 176.939 1.31999 176.939 1.31999" stroke="#1A3B5D" stroke-width="2" stroke-miterlimit="10"/>
</g>
</svg>
