<svg width="40" height="41" viewBox="0 0 40 41" fill="none" xmlns="http://www.w3.org/2000/svg">
<path d="M33.75 5.94507H6.25C5.4212 5.94507 4.62634 6.27431 4.04029 6.86036C3.45424 7.44641 3.125 8.24127 3.125 9.07007V31.5701C3.125 32.3989 3.45424 33.1937 4.04029 33.7798C4.62634 34.3658 5.4212 34.6951 6.25 34.6951H33.75C34.5788 34.6951 35.3737 34.3658 35.9597 33.7798C36.5458 33.1937 36.875 32.3989 36.875 31.5701V9.07007C36.875 8.24127 36.5458 7.44641 35.9597 6.86036C35.3737 6.27431 34.5788 5.94507 33.75 5.94507ZM33.125 30.9451H6.875V9.69507H33.125V30.9451ZM10.625 14.6951C10.625 14.1978 10.8225 13.7209 11.1742 13.3692C11.5258 13.0176 12.0027 12.8201 12.5 12.8201H27.5C27.9973 12.8201 28.4742 13.0176 28.8258 13.3692C29.1775 13.7209 29.375 14.1978 29.375 14.6951C29.375 15.1923 29.1775 15.6693 28.8258 16.0209C28.4742 16.3725 27.9973 16.5701 27.5 16.5701H12.5C12.0027 16.5701 11.5258 16.3725 11.1742 16.0209C10.8225 15.6693 10.625 15.1923 10.625 14.6951ZM10.625 20.3201C10.625 19.8228 10.8225 19.3459 11.1742 18.9942C11.5258 18.6426 12.0027 18.4451 12.5 18.4451H27.5C27.9973 18.4451 28.4742 18.6426 28.8258 18.9942C29.1775 19.3459 29.375 19.8228 29.375 20.3201C29.375 20.8173 29.1775 21.2943 28.8258 21.6459C28.4742 21.9975 27.9973 22.1951 27.5 22.1951H12.5C12.0027 22.1951 11.5258 21.9975 11.1742 21.6459C10.8225 21.2943 10.625 20.8173 10.625 20.3201ZM10.625 25.9451C10.625 25.4478 10.8225 24.9709 11.1742 24.6192C11.5258 24.2676 12.0027 24.0701 12.5 24.0701H27.5C27.9973 24.0701 28.4742 24.2676 28.8258 24.6192C29.1775 24.9709 29.375 25.4478 29.375 25.9451C29.375 26.4423 29.1775 26.9193 28.8258 27.2709C28.4742 27.6225 27.9973 27.8201 27.5 27.8201H12.5C12.0027 27.8201 11.5258 27.6225 11.1742 27.2709C10.8225 26.9193 10.625 26.4423 10.625 25.9451Z" fill="#1A3B5D"/>
</svg>
