<svg width="25" height="25" viewBox="0 0 25 25" fill="none" xmlns="http://www.w3.org/2000/svg">
<path d="M19.3428 2.03503H5.84277C5.34549 2.03503 4.86858 2.23258 4.51695 2.58421C4.16532 2.93584 3.96777 3.41275 3.96777 3.91003V20.41C3.96777 20.9073 4.16532 21.3842 4.51695 21.7359C4.86858 22.0875 5.34549 22.285 5.84277 22.285H19.3428C19.8401 22.285 20.317 22.0875 20.6686 21.7359C21.0202 21.3842 21.2178 20.9073 21.2178 20.41V3.91003C21.2178 3.41275 21.0202 2.93584 20.6686 2.58421C20.317 2.23258 19.8401 2.03503 19.3428 2.03503ZM18.9678 20.035H6.21777V4.28503H18.9678V20.035ZM8.09277 7.28503C8.09277 6.98667 8.2113 6.70052 8.42228 6.48954C8.63326 6.27856 8.9194 6.16003 9.21777 6.16003H15.9678C16.2661 6.16003 16.5523 6.27856 16.7633 6.48954C16.9742 6.70052 17.0928 6.98667 17.0928 7.28503C17.0928 7.5834 16.9742 7.86955 16.7633 8.08053C16.5523 8.29151 16.2661 8.41003 15.9678 8.41003H9.21777C8.9194 8.41003 8.63326 8.29151 8.42228 8.08053C8.2113 7.86955 8.09277 7.5834 8.09277 7.28503ZM11.8428 12.16C11.8428 12.4567 11.7548 12.7467 11.59 12.9934C11.4252 13.2401 11.1909 13.4323 10.9168 13.5459C10.6427 13.6594 10.3411 13.6891 10.0501 13.6312C9.75917 13.5733 9.49189 13.4305 9.28211 13.2207C9.07233 13.0109 8.92947 12.7436 8.8716 12.4527C8.81372 12.1617 8.84342 11.8601 8.95695 11.586C9.07049 11.3119 9.26274 11.0777 9.50942 10.9128C9.75609 10.748 10.0461 10.66 10.3428 10.66C10.7406 10.66 11.1221 10.8181 11.4034 11.0994C11.6847 11.3807 11.8428 11.7622 11.8428 12.16ZM16.3428 12.16C16.3428 12.4567 16.2548 12.7467 16.09 12.9934C15.9252 13.2401 15.6909 13.4323 15.4168 13.5459C15.1427 13.6594 14.8411 13.6891 14.5501 13.6312C14.2592 13.5733 13.9919 13.4305 13.7821 13.2207C13.5723 13.0109 13.4295 12.7436 13.3716 12.4527C13.3137 12.1617 13.3434 11.8601 13.457 11.586C13.5705 11.3119 13.7627 11.0777 14.0094 10.9128C14.2561 10.748 14.5461 10.66 14.8428 10.66C15.2406 10.66 15.6221 10.8181 15.9034 11.0994C16.1847 11.3807 16.3428 11.7622 16.3428 12.16ZM11.8428 16.66C11.8428 16.9567 11.7548 17.2467 11.59 17.4934C11.4252 17.7401 11.1909 17.9323 10.9168 18.0459C10.6427 18.1594 10.3411 18.1891 10.0501 18.1312C9.75917 18.0733 9.49189 17.9305 9.28211 17.7207C9.07233 17.5109 8.92947 17.2436 8.8716 16.9527C8.81372 16.6617 8.84342 16.3601 8.95695 16.086C9.07049 15.8119 9.26274 15.5777 9.50942 15.4128C9.75609 15.248 10.0461 15.16 10.3428 15.16C10.7406 15.16 11.1221 15.3181 11.4034 15.5994C11.6847 15.8807 11.8428 16.2622 11.8428 16.66ZM16.3428 16.66C16.3428 16.9567 16.2548 17.2467 16.09 17.4934C15.9252 17.7401 15.6909 17.9323 15.4168 18.0459C15.1427 18.1594 14.8411 18.1891 14.5501 18.1312C14.2592 18.0733 13.9919 17.9305 13.7821 17.7207C13.5723 17.5109 13.4295 17.2436 13.3716 16.9527C13.3137 16.6617 13.3434 16.3601 13.457 16.086C13.5705 15.8119 13.7627 15.5777 14.0094 15.4128C14.2561 15.248 14.5461 15.16 14.8428 15.16C15.2406 15.16 15.6221 15.3181 15.9034 15.5994C16.1847 15.8807 16.3428 16.2622 16.3428 16.66Z" fill="#1A3B5D"/>
</svg>
