<svg width="40" height="41" viewBox="0 0 40 41" fill="none" xmlns="http://www.w3.org/2000/svg">
<path d="M35.8219 14.4451C37.1661 18.0555 37.2344 22.0171 36.0156 25.6717C34.7967 29.3263 32.3641 32.4539 29.1219 34.5347C25.8796 36.6155 22.023 37.5243 18.1929 37.11C14.3627 36.6958 10.7896 34.9834 8.0672 32.2575C5.00915 29.2096 3.23572 25.1054 3.11187 20.7895C2.98802 16.4737 4.52316 12.2745 7.40138 9.0562C10.2796 5.83786 14.2819 3.84519 18.5848 3.48823C22.8876 3.13127 27.1636 4.43718 30.5328 7.13724L33.6734 3.99505C33.8479 3.82064 34.0549 3.68229 34.2828 3.5879C34.5107 3.49351 34.7549 3.44492 35.0016 3.44492C35.2482 3.44492 35.4925 3.49351 35.7203 3.5879C35.9482 3.68229 36.1553 3.82064 36.3297 3.99505C36.5041 4.16946 36.6425 4.37652 36.7369 4.6044C36.8312 4.83228 36.8798 5.07652 36.8798 5.32318C36.8798 5.56983 36.8312 5.81407 36.7369 6.04195C36.6425 6.26983 36.5041 6.47689 36.3297 6.6513L21.3297 21.6513C21.1553 21.8257 20.9482 21.9641 20.7204 22.0585C20.4925 22.1528 20.2482 22.2014 20.0016 22.2014C19.7549 22.2014 19.5107 22.1528 19.2828 22.0585C19.0549 21.9641 18.8479 21.8257 18.6734 21.6513C18.499 21.4769 18.3607 21.2698 18.2663 21.042C18.1719 20.8141 18.1233 20.5698 18.1233 20.3232C18.1233 20.0765 18.1719 19.8323 18.2663 19.6044C18.3607 19.3765 18.499 19.1695 18.6734 18.995L22.4234 15.245C21.3665 14.7401 20.1784 14.5777 19.0247 14.7805C17.8711 14.9833 16.8095 15.5411 15.9881 16.3763C15.1668 17.2114 14.6266 18.2821 14.4431 19.4389C14.2595 20.5958 14.4416 21.7811 14.9641 22.8295C15.4866 23.8779 16.3233 24.737 17.3575 25.2869C18.3917 25.8369 19.5718 26.0503 20.7331 25.8974C21.8944 25.7444 22.979 25.2327 23.8355 24.4337C24.692 23.6347 25.2778 22.5883 25.5109 21.4404C25.6092 20.9528 25.897 20.5243 26.3112 20.249C26.7254 19.9737 27.232 19.8742 27.7195 19.9724C28.2071 20.0706 28.6356 20.3585 28.9109 20.7727C29.1862 21.1869 29.2857 21.6934 29.1875 22.181C28.7881 24.1484 27.7677 25.9357 26.2764 27.2798C24.7852 28.6238 22.9018 29.4537 20.9036 29.6472C18.9054 29.8407 16.8978 29.3877 15.1763 28.3548C13.4549 27.3218 12.1105 25.7636 11.341 23.9093C10.5714 22.0551 10.4175 20.0028 10.9017 18.0545C11.386 16.1062 12.4829 14.3648 14.031 13.0866C15.579 11.8084 17.4966 11.0609 19.5013 10.9541C21.506 10.8474 23.4921 11.387 25.1672 12.4935L27.8594 9.81068C25.3305 7.92201 22.2057 7.00792 19.0576 7.23594C15.9095 7.46395 12.949 8.81879 10.7187 11.0522C8.4883 13.2855 7.13748 16.2479 6.91374 19.3963C6.69 22.5446 7.60832 25.6682 9.50042 28.1946C11.3925 30.7209 14.1316 32.4808 17.2159 33.1517C20.3001 33.8226 23.5227 33.3596 26.2933 31.8476C29.0639 30.3355 31.1968 27.8757 32.3011 24.9188C33.4055 21.962 33.4073 18.7062 32.3063 15.7482C32.2186 15.5169 32.1776 15.2706 32.1855 15.0234C32.1935 14.7762 32.2503 14.533 32.3526 14.3079C32.4549 14.0827 32.6008 13.88 32.7818 13.7115C32.9628 13.5429 33.1753 13.4119 33.4072 13.3258C33.6391 13.2398 33.8857 13.2005 34.1328 13.2101C34.3799 13.2198 34.6227 13.2782 34.8472 13.3821C35.0716 13.486 35.2733 13.6333 35.4406 13.8154C35.6078 13.9976 35.7374 14.211 35.8219 14.4435V14.4451Z" fill="#1A3B5D"/>
</svg>
