<svg width="105" height="98" viewBox="0 0 105 98" fill="none" xmlns="http://www.w3.org/2000/svg">
<rect y="0.506805" width="2.83784" height="2.65927" rx="1.32963" fill="#1A3B5D" fill-opacity="0.4"/>
<rect x="11.3514" y="0.506805" width="2.83784" height="2.65927" rx="1.32963" fill="#1A3B5D" fill-opacity="0.4"/>
<rect x="22.7028" y="0.506805" width="2.83784" height="2.65927" rx="1.32963" fill="#1A3B5D" fill-opacity="0.4"/>
<rect x="34.054" y="0.506805" width="2.83784" height="2.65927" rx="1.32963" fill="#1A3B5D" fill-opacity="0.4"/>
<rect x="45.4055" y="0.506805" width="2.83784" height="2.65927" rx="1.32963" fill="#1A3B5D" fill-opacity="0.4"/>
<rect x="56.7568" y="0.506805" width="2.83784" height="2.65927" rx="1.32963" fill="#1A3B5D" fill-opacity="0.4"/>
<rect x="68.1083" y="0.506805" width="2.83784" height="2.65927" rx="1.32963" fill="#1A3B5D" fill-opacity="0.4"/>
<rect x="79.4597" y="0.506805" width="2.83784" height="2.65927" rx="1.32963" fill="#1A3B5D" fill-opacity="0.4"/>
<rect x="90.8109" y="0.506805" width="2.83784" height="2.65927" rx="1.32963" fill="#1A3B5D" fill-opacity="0.4"/>
<rect x="102.162" y="0.506805" width="2.83784" height="2.65927" rx="1.32963" fill="#1A3B5D" fill-opacity="0.4"/>
<rect y="11.1439" width="2.83784" height="2.65927" rx="1.32963" fill="#1A3B5D" fill-opacity="0.4"/>
<rect x="11.3514" y="11.1439" width="2.83784" height="2.65927" rx="1.32963" fill="#1A3B5D" fill-opacity="0.4"/>
<rect x="22.7028" y="11.1439" width="2.83784" height="2.65927" rx="1.32963" fill="#1A3B5D" fill-opacity="0.4"/>
<rect x="34.054" y="11.1439" width="2.83784" height="2.65927" rx="1.32963" fill="#1A3B5D" fill-opacity="0.4"/>
<rect x="45.4055" y="11.1439" width="2.83784" height="2.65927" rx="1.32963" fill="#1A3B5D" fill-opacity="0.4"/>
<rect x="56.7568" y="11.1439" width="2.83784" height="2.65927" rx="1.32963" fill="#1A3B5D" fill-opacity="0.4"/>
<rect x="68.1083" y="11.1439" width="2.83784" height="2.65927" rx="1.32963" fill="#1A3B5D" fill-opacity="0.4"/>
<rect x="79.4597" y="11.1439" width="2.83784" height="2.65927" rx="1.32963" fill="#1A3B5D" fill-opacity="0.4"/>
<rect x="90.8109" y="11.1439" width="2.83784" height="2.65927" rx="1.32963" fill="#1A3B5D" fill-opacity="0.4"/>
<rect x="102.162" y="11.1439" width="2.83784" height="2.65927" rx="1.32963" fill="#1A3B5D" fill-opacity="0.4"/>
<rect y="21.7809" width="2.83784" height="2.65927" rx="1.32963" fill="#1A3B5D" fill-opacity="0.4"/>
<rect x="11.3514" y="21.7809" width="2.83784" height="2.65927" rx="1.32963" fill="#1A3B5D" fill-opacity="0.4"/>
<rect x="22.7028" y="21.7809" width="2.83784" height="2.65927" rx="1.32963" fill="#1A3B5D" fill-opacity="0.4"/>
<rect x="34.054" y="21.7809" width="2.83784" height="2.65927" rx="1.32963" fill="#1A3B5D" fill-opacity="0.4"/>
<rect x="45.4055" y="21.7809" width="2.83784" height="2.65927" rx="1.32963" fill="#1A3B5D" fill-opacity="0.4"/>
<rect x="56.7568" y="21.7809" width="2.83784" height="2.65927" rx="1.32963" fill="#1A3B5D" fill-opacity="0.4"/>
<rect x="68.1083" y="21.7809" width="2.83784" height="2.65927" rx="1.32963" fill="#1A3B5D" fill-opacity="0.4"/>
<rect x="79.4597" y="21.7809" width="2.83784" height="2.65927" rx="1.32963" fill="#1A3B5D" fill-opacity="0.4"/>
<rect x="90.8109" y="21.7809" width="2.83784" height="2.65927" rx="1.32963" fill="#1A3B5D" fill-opacity="0.4"/>
<rect x="102.162" y="21.7809" width="2.83784" height="2.65927" rx="1.32963" fill="#1A3B5D" fill-opacity="0.4"/>
<rect y="32.418" width="2.83784" height="2.65927" rx="1.32963" fill="#1A3B5D" fill-opacity="0.4"/>
<rect x="11.3514" y="32.418" width="2.83784" height="2.65927" rx="1.32963" fill="#1A3B5D" fill-opacity="0.4"/>
<rect x="22.7028" y="32.418" width="2.83784" height="2.65927" rx="1.32963" fill="#1A3B5D" fill-opacity="0.4"/>
<rect x="34.054" y="32.418" width="2.83784" height="2.65927" rx="1.32963" fill="#1A3B5D" fill-opacity="0.4"/>
<rect x="45.4055" y="32.418" width="2.83784" height="2.65927" rx="1.32963" fill="#1A3B5D" fill-opacity="0.4"/>
<rect x="56.7568" y="32.418" width="2.83784" height="2.65927" rx="1.32963" fill="#1A3B5D" fill-opacity="0.4"/>
<rect x="68.1083" y="32.418" width="2.83784" height="2.65927" rx="1.32963" fill="#1A3B5D" fill-opacity="0.4"/>
<rect x="79.4597" y="32.418" width="2.83784" height="2.65927" rx="1.32963" fill="#1A3B5D" fill-opacity="0.4"/>
<rect x="90.8109" y="32.418" width="2.83784" height="2.65927" rx="1.32963" fill="#1A3B5D" fill-opacity="0.4"/>
<rect x="102.162" y="32.418" width="2.83784" height="2.65927" rx="1.32963" fill="#1A3B5D" fill-opacity="0.4"/>
<rect y="43.0551" width="2.83784" height="2.65927" rx="1.32963" fill="#1A3B5D" fill-opacity="0.4"/>
<rect x="11.3514" y="43.0551" width="2.83784" height="2.65927" rx="1.32963" fill="#1A3B5D" fill-opacity="0.4"/>
<rect x="22.7028" y="43.0551" width="2.83784" height="2.65927" rx="1.32963" fill="#1A3B5D" fill-opacity="0.4"/>
<rect x="34.054" y="43.0551" width="2.83784" height="2.65927" rx="1.32963" fill="#1A3B5D" fill-opacity="0.4"/>
<rect x="45.4055" y="43.0551" width="2.83784" height="2.65927" rx="1.32963" fill="#1A3B5D" fill-opacity="0.4"/>
<rect x="56.7568" y="43.0551" width="2.83784" height="2.65927" rx="1.32963" fill="#1A3B5D" fill-opacity="0.4"/>
<rect x="68.1083" y="43.0551" width="2.83784" height="2.65927" rx="1.32963" fill="#1A3B5D" fill-opacity="0.4"/>
<rect x="79.4597" y="43.0551" width="2.83784" height="2.65927" rx="1.32963" fill="#1A3B5D" fill-opacity="0.4"/>
<rect x="90.8109" y="43.0551" width="2.83784" height="2.65927" rx="1.32963" fill="#1A3B5D" fill-opacity="0.4"/>
<rect x="102.162" y="43.0551" width="2.83784" height="2.65927" rx="1.32963" fill="#1A3B5D" fill-opacity="0.4"/>
<rect y="53.6921" width="2.83784" height="2.65927" rx="1.32963" fill="#1A3B5D" fill-opacity="0.4"/>
<rect x="11.3514" y="53.6921" width="2.83784" height="2.65927" rx="1.32963" fill="#1A3B5D" fill-opacity="0.4"/>
<rect x="22.7028" y="53.6921" width="2.83784" height="2.65927" rx="1.32963" fill="#1A3B5D" fill-opacity="0.4"/>
<rect x="34.054" y="53.6921" width="2.83784" height="2.65927" rx="1.32963" fill="#1A3B5D" fill-opacity="0.4"/>
<rect x="45.4055" y="53.6921" width="2.83784" height="2.65927" rx="1.32963" fill="#1A3B5D" fill-opacity="0.4"/>
<rect x="56.7568" y="53.6921" width="2.83784" height="2.65927" rx="1.32963" fill="#1A3B5D" fill-opacity="0.4"/>
<rect x="68.1083" y="53.6921" width="2.83784" height="2.65927" rx="1.32963" fill="#1A3B5D" fill-opacity="0.4"/>
<rect x="79.4597" y="53.6921" width="2.83784" height="2.65927" rx="1.32963" fill="#1A3B5D" fill-opacity="0.4"/>
<rect x="90.8109" y="53.6921" width="2.83784" height="2.65927" rx="1.32963" fill="#1A3B5D" fill-opacity="0.4"/>
<rect x="102.162" y="53.6921" width="2.83784" height="2.65927" rx="1.32963" fill="#1A3B5D" fill-opacity="0.4"/>
<rect y="64.3292" width="2.83784" height="2.65927" rx="1.32963" fill="#1A3B5D" fill-opacity="0.4"/>
<rect y="74.5883" width="2.83784" height="2.65927" rx="1.32963" fill="#1A3B5D" fill-opacity="0.4"/>
<rect y="84.8474" width="2.83784" height="2.65927" rx="1.32963" fill="#1A3B5D" fill-opacity="0.4"/>
<rect y="95.1064" width="2.83784" height="2.65927" rx="1.32963" fill="#1A3B5D" fill-opacity="0.4"/>
<rect x="11.3514" y="64.3292" width="2.83784" height="2.65927" rx="1.32963" fill="#1A3B5D" fill-opacity="0.4"/>
<rect x="11.3514" y="74.5883" width="2.83784" height="2.65927" rx="1.32963" fill="#1A3B5D" fill-opacity="0.4"/>
<rect x="11.3514" y="84.8474" width="2.83784" height="2.65927" rx="1.32963" fill="#1A3B5D" fill-opacity="0.4"/>
<rect x="11.3514" y="95.1064" width="2.83784" height="2.65927" rx="1.32963" fill="#1A3B5D" fill-opacity="0.4"/>
<rect x="22.7028" y="64.3292" width="2.83784" height="2.65927" rx="1.32963" fill="#1A3B5D" fill-opacity="0.4"/>
<rect x="22.7028" y="74.5883" width="2.83784" height="2.65927" rx="1.32963" fill="#1A3B5D" fill-opacity="0.4"/>
<rect x="22.7028" y="84.8474" width="2.83784" height="2.65927" rx="1.32963" fill="#1A3B5D" fill-opacity="0.4"/>
<rect x="22.7028" y="95.1064" width="2.83784" height="2.65927" rx="1.32963" fill="#1A3B5D" fill-opacity="0.4"/>
<rect x="34.054" y="64.3292" width="2.83784" height="2.65927" rx="1.32963" fill="#1A3B5D" fill-opacity="0.4"/>
<rect x="34.054" y="74.5883" width="2.83784" height="2.65927" rx="1.32963" fill="#1A3B5D" fill-opacity="0.4"/>
<rect x="34.054" y="84.8474" width="2.83784" height="2.65927" rx="1.32963" fill="#1A3B5D" fill-opacity="0.4"/>
<rect x="34.054" y="95.1064" width="2.83784" height="2.65927" rx="1.32963" fill="#1A3B5D" fill-opacity="0.4"/>
<rect x="45.4055" y="64.3292" width="2.83784" height="2.65927" rx="1.32963" fill="#1A3B5D" fill-opacity="0.4"/>
<rect x="45.4055" y="74.5883" width="2.83784" height="2.65927" rx="1.32963" fill="#1A3B5D" fill-opacity="0.4"/>
<rect x="45.4055" y="84.8474" width="2.83784" height="2.65927" rx="1.32963" fill="#1A3B5D" fill-opacity="0.4"/>
<rect x="45.4055" y="95.1064" width="2.83784" height="2.65927" rx="1.32963" fill="#1A3B5D" fill-opacity="0.4"/>
<rect x="56.7568" y="64.3292" width="2.83784" height="2.65927" rx="1.32963" fill="#1A3B5D" fill-opacity="0.4"/>
<rect x="56.7568" y="74.5883" width="2.83784" height="2.65927" rx="1.32963" fill="#1A3B5D" fill-opacity="0.4"/>
<rect x="56.7568" y="84.8474" width="2.83784" height="2.65927" rx="1.32963" fill="#1A3B5D" fill-opacity="0.4"/>
<rect x="56.7568" y="95.1064" width="2.83784" height="2.65927" rx="1.32963" fill="#1A3B5D" fill-opacity="0.4"/>
<rect x="68.1083" y="64.3292" width="2.83784" height="2.65927" rx="1.32963" fill="#1A3B5D" fill-opacity="0.4"/>
<rect x="68.1083" y="74.5883" width="2.83784" height="2.65927" rx="1.32963" fill="#1A3B5D" fill-opacity="0.4"/>
<rect x="68.1083" y="84.8474" width="2.83784" height="2.65927" rx="1.32963" fill="#1A3B5D" fill-opacity="0.4"/>
<rect x="68.1083" y="95.1064" width="2.83784" height="2.65927" rx="1.32963" fill="#1A3B5D" fill-opacity="0.4"/>
<rect x="79.4597" y="64.3292" width="2.83784" height="2.65927" rx="1.32963" fill="#1A3B5D" fill-opacity="0.4"/>
<rect x="79.4597" y="74.5883" width="2.83784" height="2.65927" rx="1.32963" fill="#1A3B5D" fill-opacity="0.4"/>
<rect x="79.4597" y="84.8474" width="2.83784" height="2.65927" rx="1.32963" fill="#1A3B5D" fill-opacity="0.4"/>
<rect x="79.4597" y="95.1064" width="2.83784" height="2.65927" rx="1.32963" fill="#1A3B5D" fill-opacity="0.4"/>
<rect x="90.8109" y="64.3292" width="2.83784" height="2.65927" rx="1.32963" fill="#1A3B5D" fill-opacity="0.4"/>
<rect x="90.8109" y="74.5883" width="2.83784" height="2.65927" rx="1.32963" fill="#1A3B5D" fill-opacity="0.4"/>
<rect x="90.8109" y="84.8474" width="2.83784" height="2.65927" rx="1.32963" fill="#1A3B5D" fill-opacity="0.4"/>
<rect x="90.8109" y="95.1064" width="2.83784" height="2.65927" rx="1.32963" fill="#1A3B5D" fill-opacity="0.4"/>
<rect x="102.162" y="64.3292" width="2.83784" height="2.65927" rx="1.32963" fill="#1A3B5D" fill-opacity="0.4"/>
<rect x="102.162" y="74.5883" width="2.83784" height="2.65927" rx="1.32963" fill="#1A3B5D" fill-opacity="0.4"/>
<rect x="102.162" y="84.8474" width="2.83784" height="2.65927" rx="1.32963" fill="#1A3B5D" fill-opacity="0.4"/>
<rect x="102.162" y="95.1064" width="2.83784" height="2.65927" rx="1.32963" fill="#1A3B5D" fill-opacity="0.4"/>
</svg>
